<svg width="114" height="40" viewBox="0 0 114 40" fill="none" xmlns="http://www.w3.org/2000/svg">
<path d="M59.5004 40C43.1394 40 27.9471 37.971 15.0921 34.2029C7.49591 32.1739 5.45079 31.8841 3.98999 31.8841C3.69783 31.8841 3.69783 31.8841 3.40567 31.8841C3.11351 31.8841 3.11351 31.8841 2.82135 31.8841H2.52919C1.65271 31.8841 0.776227 31.3043 0.484066 30.7246C-0.100254 30.1449 -0.100253 28.9855 0.191907 28.4058C0.484067 27.2464 1.06839 25.2174 1.36055 22.8986C4.28215 9.56522 9.83319 1.15942 29.4079 1.15942C35.8354 1.15942 43.4316 2.02899 53.0729 3.76812C62.7142 5.50725 71.479 6.37681 79.3673 6.37681C96.3126 6.37681 104.493 2.31884 107.122 0.57971C107.707 0.289855 107.999 0 108.583 0C109.752 0 110.628 0.57971 111.213 1.73913C113.258 6.95652 116.179 17.1014 111.213 25.5072C107.707 31.8841 100.403 35.942 89.885 37.6812C85.5026 38.5507 74.1084 40 59.5004 40Z" fill="white"/>
<path d="M89.5929 36.5217C75.5693 38.8406 43.7238 41.4493 15.3843 33.0435C5.45085 30.1449 4.86653 30.7246 2.52925 30.7246C1.65277 30.7246 1.06845 29.8551 1.36061 28.9855C1.65277 27.8261 2.23709 26.087 2.82141 23.4783C6.61949 5.50725 14.8 -1.44928 52.7808 5.21739C88.7165 11.3043 103.324 4.34783 107.707 1.73913C108.291 1.15942 109.46 1.44928 109.752 2.31884C112.089 8.69565 119.685 31.5942 89.5929 36.5217Z" fill="#ED3D7F"/>
<path d="M24.1491 21.1594C24.1491 22.029 23.5648 22.8985 22.6883 23.4783C21.8118 24.058 20.9353 24.058 19.7667 24.058C17.7216 24.058 16.5529 23.4783 15.3843 22.6087C14.2157 21.4493 13.6313 20.2898 13.6313 18.5507C13.6313 17.1014 14.2157 15.942 15.3843 15.0725C16.5529 14.2029 17.7216 13.6232 19.1824 13.6232C20.351 13.6232 21.2275 13.913 21.8118 14.2029C22.6883 14.7826 23.2726 15.6522 23.2726 16.5217C23.2726 17.1014 23.2726 17.3913 22.9805 17.6811C22.3961 17.971 22.104 18.2609 21.5197 18.2609H20.9353C20.9353 17.3913 20.9353 17.1014 20.6432 16.5217C20.351 15.942 20.0589 15.942 19.1824 15.942C18.5981 15.942 18.0137 16.2319 17.4294 16.8116C17.1373 17.3913 16.8451 17.971 16.8451 18.5507C16.8451 19.7101 17.1373 20.5797 18.0137 21.1594C18.5981 21.7391 19.7667 22.029 20.9353 22.029C22.104 22.029 23.2726 21.4493 23.5648 20.2898C23.8569 20.2898 24.1491 20.5797 24.1491 21.1594Z" fill="white"/>
<path d="M37.5885 19.7101C37.5885 21.1594 37.0041 22.029 35.5433 22.8985C34.3747 23.4782 33.4982 23.7681 32.3296 23.7681C30.5766 23.7681 29.1158 23.4782 27.655 22.6087C26.1942 21.7391 25.3177 20.2898 25.3177 18.5507C25.3177 17.1014 25.9021 15.6522 27.3629 14.7826C28.5315 13.913 29.9923 13.6232 31.7453 13.6232C32.9139 13.6232 33.7904 13.913 34.6669 14.2029C35.8355 14.7826 36.4198 15.3623 36.4198 16.2319C36.4198 17.3913 36.1277 17.971 35.2512 17.971C34.959 17.971 34.6669 17.971 34.3747 17.6811C34.0825 17.3913 34.0825 17.3913 34.0825 17.1014V16.8116C33.4982 16.5217 32.9139 16.5217 32.3296 16.5217C30.2845 16.5217 29.1158 17.3913 29.1158 19.1304C29.1158 20.5797 30.2845 21.4493 32.3296 21.4493C33.2061 21.4493 33.7904 21.1594 34.3747 20.5797C34.959 20 35.2512 19.4203 35.2512 18.5507C35.8355 18.2609 36.1277 17.6811 36.4198 17.1014C37.2963 17.6811 37.5885 18.5507 37.5885 19.7101Z" fill="white"/>
<path d="M51.0279 19.1304C51.0279 20 50.7358 20.8696 50.1514 21.7391C49.8593 22.3188 48.9828 23.1884 48.1063 23.7681C47.8142 23.7681 47.8142 24.058 47.522 24.058C47.522 24.058 46.9377 23.7681 46.6455 23.4783C47.522 22.3188 48.1063 21.1594 48.1063 19.4203C48.1063 18.5507 47.8142 17.971 47.2298 17.1014C46.6455 16.5217 45.769 15.942 44.8926 15.942C44.3082 15.942 43.7239 16.2319 43.1396 16.5217C43.4318 17.3913 43.4318 18.2609 43.4318 19.1304C43.4318 20.5797 43.1396 21.7391 42.8474 23.1884C42.8474 23.4783 42.5553 23.7681 42.2631 23.7681C42.2631 23.7681 41.971 23.7681 41.971 23.4783C41.3866 22.6087 40.5102 22.3188 39.6337 22.3188H39.0494C38.7572 22.3188 38.7572 22.3188 38.7572 22.029C38.7572 21.7391 38.7572 21.7391 38.7572 21.7391C39.9258 20 40.218 18.5507 40.218 16.8116C40.218 15.6522 39.9258 14.7826 39.6337 13.6232C39.6337 13.6232 39.9258 13.3333 40.218 13.0435C40.5102 12.7536 40.8023 12.4638 40.8023 12.4638C41.0945 12.4638 41.0945 12.7536 41.3866 12.7536C41.971 13.913 42.2631 14.2029 42.5553 14.7826C43.7239 14.2029 44.8926 13.913 46.0612 13.913C47.522 13.913 48.6906 14.4927 49.5671 15.6522C50.4436 16.5217 51.0279 17.6812 51.0279 19.1304Z" fill="white"/>
<path d="M62.7143 21.1594C62.7143 22.029 62.13 22.8985 61.2535 23.4783C60.377 24.058 59.5006 24.058 58.3319 24.058C56.579 24.058 55.1182 23.4783 54.2417 22.6087C53.073 21.4493 52.4887 20.2898 52.4887 18.8406C52.4887 17.3913 53.073 16.2319 54.2417 15.3623C55.4103 14.4927 56.579 13.913 58.0398 13.913C59.2084 13.913 60.0849 14.2029 60.6692 14.4927C61.5457 15.0725 61.8378 15.6522 61.8378 16.5217C61.8378 17.1014 61.8378 17.3913 61.5457 17.6812C61.2535 17.971 60.9614 18.2609 60.377 18.2609H59.7927C59.7927 17.3913 59.7927 17.1014 59.5006 16.5217C59.2084 16.2319 58.6241 15.942 58.0398 15.942C57.4554 15.942 56.8711 16.2319 56.2868 16.8116C55.7025 17.3913 55.7025 17.971 55.7025 18.5507C55.7025 19.7101 55.9946 20.5797 56.8711 21.1594C57.4554 21.7391 58.6241 22.029 59.7927 22.029C60.9614 22.029 61.8378 21.4493 62.4222 20.2898C62.4222 20.2898 62.7143 20.5797 62.7143 21.1594Z" fill="white"/>
<path d="M75.5693 18.8406C75.5693 20.5797 74.985 21.7391 74.1085 22.6087C73.2321 23.4783 71.7713 24.058 70.0183 24.058C65.9281 24.058 64.1751 22.6087 64.1751 19.4203C64.1751 18.8406 64.1751 18.2609 64.4673 17.3913C64.7594 15.6522 65.0516 14.4927 65.0516 13.913C65.9281 13.913 67.3889 14.2029 69.434 14.4927C68.5575 15.942 68.2653 16.8116 68.2653 16.8116C67.9732 17.6812 67.681 18.5507 67.681 19.1304C67.681 20 67.9732 20.5797 68.5575 21.1594C69.1418 21.7391 69.7261 22.029 70.6026 22.029C71.1869 22.029 71.7713 21.7391 72.3556 21.4493C72.9399 21.1594 73.2321 20.5797 73.2321 20C73.2321 19.1304 73.2321 18.2609 72.9399 17.3913L72.3556 14.4927C72.6477 14.2029 72.9399 13.913 73.5242 13.913C73.8164 13.913 74.4007 13.913 74.6929 14.2029L75.2772 16.5217C75.2772 17.3913 75.5693 18.2609 75.5693 18.8406Z" fill="white"/>
<path d="M89.3007 19.1304C89.3007 20 89.0086 20.8696 88.4243 21.7391C88.1321 22.3188 87.2556 23.1884 86.3792 23.7681C86.087 23.7681 86.087 24.058 85.7948 24.058C85.7948 24.058 85.2105 23.7681 84.9184 23.4783C85.7948 22.3188 86.3792 21.1594 86.3792 19.4203C86.3792 18.5507 86.087 17.971 85.5027 17.1014C84.9183 16.5217 84.0419 15.942 83.1654 15.942C82.5811 15.942 81.9967 16.2319 81.4124 16.5217C81.7046 17.3913 81.7046 18.2609 81.7046 19.1304C81.7046 20.5797 81.4124 21.7391 81.1203 23.1884C81.1203 23.4783 80.8281 23.7681 80.536 23.7681C80.536 23.7681 80.2438 23.7681 80.2438 23.4783C79.6595 22.6087 78.783 22.3188 77.9065 22.3188H77.3222C77.03 22.3188 77.03 22.3188 77.03 22.029C77.03 21.7391 77.03 21.7391 77.03 21.7391C78.1987 20 78.4908 18.5507 78.4908 16.8116C78.4908 15.6522 78.1987 14.7826 77.9065 13.6232C77.9065 13.6232 78.1987 13.3333 78.4908 13.0435C78.783 12.7536 79.0752 12.4638 79.0752 12.4638C79.3673 12.4638 79.3673 12.7536 79.6595 12.7536C79.9516 13.0435 80.2438 13.3333 80.536 13.6232C81.7046 13.0435 82.8732 12.7536 84.0419 12.7536C85.5027 12.7536 86.6713 13.3333 87.5478 14.4927C88.7164 16.5217 89.3007 17.6812 89.3007 19.1304Z" fill="white"/>
<path d="M101.279 24.9275C101.279 26.3768 100.403 27.2464 98.9422 28.1159C97.7736 28.6957 96.3128 28.9855 94.852 28.9855C93.6833 28.9855 92.5147 28.6956 91.6382 28.4058C90.4696 27.8261 89.8853 26.9565 89.8853 26.087C89.8853 25.5072 90.1774 25.5072 90.7617 25.5072C91.0539 26.6667 92.2225 26.9565 93.9755 26.9565C94.852 26.9565 95.7284 26.9565 96.3128 26.6667C97.4814 26.3768 97.7736 25.7971 97.7736 25.2174C97.7736 24.9275 97.4814 24.6377 96.6049 24.3478C96.3128 24.3478 95.7284 24.3478 95.1441 24.3478H94.5598C92.8068 24.3478 91.9304 23.7681 91.9304 22.8985C91.9304 22.6087 91.9304 22.3188 92.2225 22.029C92.5147 22.029 92.8068 22.3188 93.3912 22.3188H93.6833V22.6087C93.6833 22.8985 93.9755 22.8985 94.5598 22.8985C94.852 22.8985 95.1441 22.8985 95.7285 22.8985C96.3128 22.8985 96.6049 22.8985 96.8971 22.8985C98.0657 22.8985 98.9422 23.1884 99.5265 23.4783C100.987 23.4783 101.279 24.058 101.279 24.9275ZM99.8187 16.2319C99.8187 16.5217 99.8187 16.8116 99.5265 17.1014C99.2344 17.3913 98.9422 17.6812 98.6501 17.6812C98.3579 17.6812 97.7736 17.6812 97.4814 17.3913C97.1892 17.1014 96.8971 17.1014 96.6049 17.1014C96.0206 17.1014 95.4363 17.3913 94.852 17.6812C94.2676 17.971 93.9755 18.5507 93.9755 19.1304C93.9755 19.4203 93.9755 19.7101 94.2677 20C94.5598 20.2899 94.852 20.2899 95.1441 20.2899C95.7284 20.2899 96.3128 20 96.6049 19.7101C97.1892 19.1304 97.4814 18.8406 97.4814 18.2609V17.971C97.7736 17.971 98.0657 18.2609 98.3579 18.2609C98.65 18.2609 98.9422 18.2609 99.2344 17.971C99.2344 19.1304 98.65 20 97.4814 20.8696C96.3128 21.4493 95.1441 22.029 93.6833 22.029C92.8069 22.029 92.2225 21.7391 91.6382 21.1594C91.0539 20.5797 91.0539 20 91.0539 19.1304C91.0539 17.971 91.6382 16.8116 92.5147 15.942C93.6833 14.7826 94.852 14.2029 96.6049 14.2029C97.4814 14.2029 98.3579 14.4928 98.9422 14.7826C99.2344 14.7826 99.8187 15.3623 99.8187 16.2319ZM102.156 14.2029C102.156 14.7826 101.864 14.7826 100.987 14.7826C100.987 14.2029 100.695 13.913 100.111 13.913C99.8187 13.913 99.5265 14.2029 99.2344 14.7826C98.9422 14.4928 98.9422 14.2029 98.6501 14.2029C98.9422 13.3333 99.5265 12.7536 100.403 12.7536C100.695 12.7536 101.279 13.0435 101.572 13.3333C101.864 13.3333 102.156 13.6232 102.156 14.2029Z" fill="white"/>
<path d="M77.03 27.5362L76.4457 28.1159C76.4457 28.1159 76.4457 28.1159 76.1535 28.1159C76.1535 28.1159 76.1535 28.1159 76.1535 27.8261C76.1535 27.5362 76.1535 27.5362 76.4457 27.5362H76.7378C76.7378 27.2464 76.7378 27.2464 77.03 27.5362C77.03 27.2464 77.03 27.5362 77.03 27.5362Z" fill="white"/>
<path d="M80.2439 27.2464C80.2439 27.5362 80.2439 27.8261 79.9518 27.8261C79.6596 27.8261 79.3674 28.1159 79.0753 28.1159C78.491 28.1159 78.1988 28.1159 77.9066 27.8261C77.6145 27.5362 77.3223 27.2464 77.3223 26.6667C77.3223 26.3768 77.6145 26.0869 77.9066 25.7971C78.1988 25.5072 78.491 25.5072 79.0753 25.5072C79.3674 25.5072 79.6596 25.5072 79.9518 25.7971C79.9518 25.5072 79.9518 25.5072 79.9518 25.7971V26.0869H79.6596H79.3674C79.3674 25.7971 79.3674 25.7971 79.3674 25.5072L79.0753 25.2174C78.7831 25.2174 78.7831 25.2174 78.491 25.5072C78.491 25.7971 78.1988 25.7971 78.1988 26.0869C78.1988 26.3768 78.1988 26.6667 78.491 26.9565C78.7831 27.2464 79.0753 27.2464 79.3674 27.2464C79.6596 27.2464 79.9518 27.2464 80.2439 27.2464C80.2439 26.9565 80.2439 26.9565 80.2439 27.2464Z" fill="white"/>
<path d="M84.0419 26.6667C84.0419 26.9565 83.7497 27.2464 83.4576 27.5362C83.1654 27.8261 82.8732 27.8261 82.5811 27.8261C81.9968 27.8261 81.7046 27.8261 81.4124 27.5362C80.8281 27.2464 80.8281 26.9565 80.8281 26.3768C80.8281 25.7971 81.1203 25.5072 81.4124 25.2174C81.7046 24.9275 82.2889 24.9275 82.5811 24.9275C82.8732 24.9275 83.1654 24.9275 83.4576 25.2174C83.7497 25.2174 84.0419 25.5072 84.0419 25.7971C84.0419 26.0869 84.0419 26.3768 83.7497 26.3768C83.7497 26.3768 83.7497 26.3768 83.4576 26.3768C83.4576 26.3768 83.4576 26.3768 83.4576 26.0869C83.1654 26.0869 83.1654 26.0869 82.8732 26.0869C82.2889 26.0869 81.9968 26.3768 81.9968 26.6667C81.9968 27.2464 82.2889 27.2464 82.8732 27.2464C83.1654 27.2464 83.1654 27.2464 83.4576 26.9565C83.7497 26.6667 83.7497 26.6667 83.7497 26.3768C84.0419 26.3768 84.0419 26.0869 84.0419 26.0869C84.0419 26.0869 84.0419 26.3768 84.0419 26.6667Z" fill="white"/>
<path d="M89.5929 26.6667C89.5929 26.9565 89.5929 27.2464 89.3008 27.5362C89.0086 27.8261 89.0086 28.1159 89.0086 28.1159C88.7164 28.1159 88.7164 28.1159 88.4243 27.8261C88.4243 27.8261 88.4243 27.5362 88.7164 27.2464C88.7164 26.9565 88.7164 26.9565 88.7164 26.6667C88.7164 26.3768 88.7164 26.3768 88.4243 26.0869C88.1321 25.7971 88.1321 25.7971 87.84 25.7971H87.5478C87.5478 26.0869 87.84 26.0869 87.84 26.3768C87.84 26.6667 87.5478 27.2464 87.2556 27.5362C87.2556 27.5362 87.2556 27.5362 86.9635 27.5362H86.6713C86.9635 27.2464 86.9635 26.9565 86.9635 26.6667C86.9635 26.3768 86.9635 26.0869 86.6713 26.0869C86.3792 25.7971 86.3792 25.7971 86.087 25.7971C85.7948 25.7971 85.7948 25.7971 85.5027 26.0869C85.5027 26.3768 85.5027 26.6667 85.5027 26.9565C85.5027 27.2464 85.5027 27.8261 85.2105 28.1159C84.9184 27.8261 84.9184 27.8261 84.6262 27.8261H84.334C84.6262 27.2464 84.6262 26.9565 84.6262 26.3768C84.6262 26.0869 84.6262 25.7971 84.334 25.5072C84.334 25.5072 84.334 25.5072 84.334 25.2174C84.334 25.2174 84.334 25.2174 84.6262 25.2174C84.6262 25.2174 84.9184 25.2174 84.9184 25.5072C85.2105 25.2174 85.5027 25.2174 85.7948 25.2174C86.087 25.2174 86.3792 25.2174 86.6713 25.5072L86.9635 25.2174C87.2556 25.2174 87.2556 25.2174 87.5478 25.2174C87.84 25.2174 88.4243 25.5072 88.4243 25.7971C89.3008 25.7971 89.5929 26.0869 89.5929 26.6667Z" fill="white"/>
</svg>
