<svg width="111" height="111" viewBox="0 0 111 111" fill="none" xmlns="http://www.w3.org/2000/svg">
<path d="M111 0H0V111H111V0Z" fill="white"/>
<path d="M8.22222 4.11108H4.11111V8.22219H8.22222V4.11108Z" fill="black"/>
<path d="M12.3333 4.11108H8.22222V8.22219H12.3333V4.11108Z" fill="black"/>
<path d="M16.4444 4.11108H12.3333V8.22219H16.4444V4.11108Z" fill="black"/>
<path d="M20.5556 4.11108H16.4444V8.22219H20.5556V4.11108Z" fill="black"/>
<path d="M24.6667 4.11108H20.5556V8.22219H24.6667V4.11108Z" fill="black"/>
<path d="M28.7778 4.11108H24.6667V8.22219H28.7778V4.11108Z" fill="black"/>
<path d="M32.8889 4.11108H28.7778V8.22219H32.8889V4.11108Z" fill="black"/>
<path d="M41.1111 4.11108H37V8.22219H41.1111V4.11108Z" fill="black"/>
<path d="M45.2222 4.11108H41.1111V8.22219H45.2222V4.11108Z" fill="black"/>
<path d="M49.3333 4.11108H45.2222V8.22219H49.3333V4.11108Z" fill="black"/>
<path d="M53.4444 4.11108H49.3333V8.22219H53.4444V4.11108Z" fill="black"/>
<path d="M65.7778 4.11108H61.6667V8.22219H65.7778V4.11108Z" fill="black"/>
<path d="M74 4.11108H69.8889V8.22219H74V4.11108Z" fill="black"/>
<path d="M82.2222 4.11108H78.1111V8.22219H82.2222V4.11108Z" fill="black"/>
<path d="M86.3333 4.11108H82.2222V8.22219H86.3333V4.11108Z" fill="black"/>
<path d="M90.4444 4.11108H86.3333V8.22219H90.4444V4.11108Z" fill="black"/>
<path d="M94.5556 4.11108H90.4444V8.22219H94.5556V4.11108Z" fill="black"/>
<path d="M98.6667 4.11108H94.5556V8.22219H98.6667V4.11108Z" fill="black"/>
<path d="M102.778 4.11108H98.6667V8.22219H102.778V4.11108Z" fill="black"/>
<path d="M106.889 4.11108H102.778V8.22219H106.889V4.11108Z" fill="black"/>
<path d="M8.22222 8.22223H4.11111V12.3333H8.22222V8.22223Z" fill="black"/>
<path d="M32.8889 8.22223H28.7778V12.3333H32.8889V8.22223Z" fill="black"/>
<path d="M53.4444 8.22223H49.3333V12.3333H53.4444V8.22223Z" fill="black"/>
<path d="M57.5555 8.22223H53.4444V12.3333H57.5555V8.22223Z" fill="black"/>
<path d="M74 8.22223H69.8889V12.3333H74V8.22223Z" fill="black"/>
<path d="M82.2222 8.22223H78.1111V12.3333H82.2222V8.22223Z" fill="black"/>
<path d="M106.889 8.22223H102.778V12.3333H106.889V8.22223Z" fill="black"/>
<path d="M8.22222 12.3333H4.11111V16.4444H8.22222V12.3333Z" fill="black"/>
<path d="M16.4444 12.3333H12.3333V16.4444H16.4444V12.3333Z" fill="black"/>
<path d="M20.5556 12.3333H16.4444V16.4444H20.5556V12.3333Z" fill="black"/>
<path d="M24.6667 12.3333H20.5556V16.4444H24.6667V12.3333Z" fill="black"/>
<path d="M32.8889 12.3333H28.7778V16.4444H32.8889V12.3333Z" fill="black"/>
<path d="M45.2222 12.3333H41.1111V16.4444H45.2222V12.3333Z" fill="black"/>
<path d="M53.4444 12.3333H49.3333V16.4444H53.4444V12.3333Z" fill="black"/>
<path d="M61.6667 12.3333H57.5556V16.4444H61.6667V12.3333Z" fill="black"/>
<path d="M65.7778 12.3333H61.6667V16.4444H65.7778V12.3333Z" fill="black"/>
<path d="M82.2222 12.3333H78.1111V16.4444H82.2222V12.3333Z" fill="black"/>
<path d="M90.4444 12.3333H86.3333V16.4444H90.4444V12.3333Z" fill="black"/>
<path d="M94.5556 12.3333H90.4444V16.4444H94.5556V12.3333Z" fill="black"/>
<path d="M98.6667 12.3333H94.5556V16.4444H98.6667V12.3333Z" fill="black"/>
<path d="M106.889 12.3333H102.778V16.4444H106.889V12.3333Z" fill="black"/>
<path d="M8.22222 16.4445H4.11111V20.5556H8.22222V16.4445Z" fill="black"/>
<path d="M16.4444 16.4445H12.3333V20.5556H16.4444V16.4445Z" fill="black"/>
<path d="M20.5556 16.4445H16.4444V20.5556H20.5556V16.4445Z" fill="black"/>
<path d="M24.6667 16.4445H20.5556V20.5556H24.6667V16.4445Z" fill="black"/>
<path d="M32.8889 16.4445H28.7778V20.5556H32.8889V16.4445Z" fill="black"/>
<path d="M49.3333 16.4445H45.2222V20.5556H49.3333V16.4445Z" fill="black"/>
<path d="M53.4444 16.4445H49.3333V20.5556H53.4444V16.4445Z" fill="black"/>
<path d="M57.5555 16.4445H53.4444V20.5556H57.5555V16.4445Z" fill="black"/>
<path d="M61.6667 16.4445H57.5556V20.5556H61.6667V16.4445Z" fill="black"/>
<path d="M69.8889 16.4445H65.7778V20.5556H69.8889V16.4445Z" fill="black"/>
<path d="M74 16.4445H69.8889V20.5556H74V16.4445Z" fill="black"/>
<path d="M82.2222 16.4445H78.1111V20.5556H82.2222V16.4445Z" fill="black"/>
<path d="M90.4444 16.4445H86.3333V20.5556H90.4444V16.4445Z" fill="black"/>
<path d="M94.5556 16.4445H90.4444V20.5556H94.5556V16.4445Z" fill="black"/>
<path d="M98.6667 16.4445H94.5556V20.5556H98.6667V16.4445Z" fill="black"/>
<path d="M106.889 16.4445H102.778V20.5556H106.889V16.4445Z" fill="black"/>
<path d="M8.22222 20.5555H4.11111V24.6667H8.22222V20.5555Z" fill="black"/>
<path d="M16.4444 20.5555H12.3333V24.6667H16.4444V20.5555Z" fill="black"/>
<path d="M20.5556 20.5555H16.4444V24.6667H20.5556V20.5555Z" fill="black"/>
<path d="M24.6667 20.5555H20.5556V24.6667H24.6667V20.5555Z" fill="black"/>
<path d="M32.8889 20.5555H28.7778V24.6667H32.8889V20.5555Z" fill="black"/>
<path d="M49.3333 20.5555H45.2222V24.6667H49.3333V20.5555Z" fill="black"/>
<path d="M53.4444 20.5555H49.3333V24.6667H53.4444V20.5555Z" fill="black"/>
<path d="M57.5555 20.5555H53.4444V24.6667H57.5555V20.5555Z" fill="black"/>
<path d="M65.7778 20.5555H61.6667V24.6667H65.7778V20.5555Z" fill="black"/>
<path d="M74 20.5555H69.8889V24.6667H74V20.5555Z" fill="black"/>
<path d="M82.2222 20.5555H78.1111V24.6667H82.2222V20.5555Z" fill="black"/>
<path d="M90.4444 20.5555H86.3333V24.6667H90.4444V20.5555Z" fill="black"/>
<path d="M94.5556 20.5555H90.4444V24.6667H94.5556V20.5555Z" fill="black"/>
<path d="M98.6667 20.5555H94.5556V24.6667H98.6667V20.5555Z" fill="black"/>
<path d="M106.889 20.5555H102.778V24.6667H106.889V20.5555Z" fill="black"/>
<path d="M8.22222 24.6667H4.11111V28.7778H8.22222V24.6667Z" fill="black"/>
<path d="M32.8889 24.6667H28.7778V28.7778H32.8889V24.6667Z" fill="black"/>
<path d="M45.2222 24.6667H41.1111V28.7778H45.2222V24.6667Z" fill="black"/>
<path d="M53.4444 24.6667H49.3333V28.7778H53.4444V24.6667Z" fill="black"/>
<path d="M57.5555 24.6667H53.4444V28.7778H57.5555V24.6667Z" fill="black"/>
<path d="M61.6667 24.6667H57.5556V28.7778H61.6667V24.6667Z" fill="black"/>
<path d="M74 24.6667H69.8889V28.7778H74V24.6667Z" fill="black"/>
<path d="M82.2222 24.6667H78.1111V28.7778H82.2222V24.6667Z" fill="black"/>
<path d="M106.889 24.6667H102.778V28.7778H106.889V24.6667Z" fill="black"/>
<path d="M8.22222 28.7778H4.11111V32.8889H8.22222V28.7778Z" fill="black"/>
<path d="M12.3333 28.7778H8.22222V32.8889H12.3333V28.7778Z" fill="black"/>
<path d="M16.4444 28.7778H12.3333V32.8889H16.4444V28.7778Z" fill="black"/>
<path d="M20.5556 28.7778H16.4444V32.8889H20.5556V28.7778Z" fill="black"/>
<path d="M24.6667 28.7778H20.5556V32.8889H24.6667V28.7778Z" fill="black"/>
<path d="M28.7778 28.7778H24.6667V32.8889H28.7778V28.7778Z" fill="black"/>
<path d="M32.8889 28.7778H28.7778V32.8889H32.8889V28.7778Z" fill="black"/>
<path d="M41.1111 28.7778H37V32.8889H41.1111V28.7778Z" fill="black"/>
<path d="M49.3333 28.7778H45.2222V32.8889H49.3333V28.7778Z" fill="black"/>
<path d="M57.5555 28.7778H53.4444V32.8889H57.5555V28.7778Z" fill="black"/>
<path d="M65.7778 28.7778H61.6667V32.8889H65.7778V28.7778Z" fill="black"/>
<path d="M74 28.7778H69.8889V32.8889H74V28.7778Z" fill="black"/>
<path d="M82.2222 28.7778H78.1111V32.8889H82.2222V28.7778Z" fill="black"/>
<path d="M86.3333 28.7778H82.2222V32.8889H86.3333V28.7778Z" fill="black"/>
<path d="M90.4444 28.7778H86.3333V32.8889H90.4444V28.7778Z" fill="black"/>
<path d="M94.5556 28.7778H90.4444V32.8889H94.5556V28.7778Z" fill="black"/>
<path d="M98.6667 28.7778H94.5556V32.8889H98.6667V28.7778Z" fill="black"/>
<path d="M102.778 28.7778H98.6667V32.8889H102.778V28.7778Z" fill="black"/>
<path d="M106.889 28.7778H102.778V32.8889H106.889V28.7778Z" fill="black"/>
<path d="M41.1111 32.8889H37V37H41.1111V32.8889Z" fill="black"/>
<path d="M45.2222 32.8889H41.1111V37H45.2222V32.8889Z" fill="black"/>
<path d="M57.5555 32.8889H53.4444V37H57.5555V32.8889Z" fill="black"/>
<path d="M61.6667 32.8889H57.5556V37H61.6667V32.8889Z" fill="black"/>
<path d="M65.7778 32.8889H61.6667V37H65.7778V32.8889Z" fill="black"/>
<path d="M74 32.8889H69.8889V37H74V32.8889Z" fill="black"/>
<path d="M8.22222 37H4.11111V41.1111H8.22222V37Z" fill="black"/>
<path d="M12.3333 37H8.22222V41.1111H12.3333V37Z" fill="black"/>
<path d="M20.5556 37H16.4444V41.1111H20.5556V37Z" fill="black"/>
<path d="M24.6667 37H20.5556V41.1111H24.6667V37Z" fill="black"/>
<path d="M32.8889 37H28.7778V41.1111H32.8889V37Z" fill="black"/>
<path d="M45.2222 37H41.1111V41.1111H45.2222V37Z" fill="black"/>
<path d="M53.4444 37H49.3333V41.1111H53.4444V37Z" fill="black"/>
<path d="M57.5555 37H53.4444V41.1111H57.5555V37Z" fill="black"/>
<path d="M65.7778 37H61.6667V41.1111H65.7778V37Z" fill="black"/>
<path d="M69.8889 37H65.7778V41.1111H69.8889V37Z" fill="black"/>
<path d="M82.2222 37H78.1111V41.1111H82.2222V37Z" fill="black"/>
<path d="M106.889 37H102.778V41.1111H106.889V37Z" fill="black"/>
<path d="M24.6667 41.1111H20.5556V45.2222H24.6667V41.1111Z" fill="black"/>
<path d="M28.7778 41.1111H24.6667V45.2222H28.7778V41.1111Z" fill="black"/>
<path d="M37 41.1111H32.8889V45.2222H37V41.1111Z" fill="black"/>
<path d="M41.1111 41.1111H37V45.2222H41.1111V41.1111Z" fill="black"/>
<path d="M49.3333 41.1111H45.2222V45.2222H49.3333V41.1111Z" fill="black"/>
<path d="M53.4444 41.1111H49.3333V45.2222H53.4444V41.1111Z" fill="black"/>
<path d="M61.6667 41.1111H57.5556V45.2222H61.6667V41.1111Z" fill="black"/>
<path d="M65.7778 41.1111H61.6667V45.2222H65.7778V41.1111Z" fill="black"/>
<path d="M69.8889 41.1111H65.7778V45.2222H69.8889V41.1111Z" fill="black"/>
<path d="M86.3333 41.1111H82.2222V45.2222H86.3333V41.1111Z" fill="black"/>
<path d="M90.4444 41.1111H86.3333V45.2222H90.4444V41.1111Z" fill="black"/>
<path d="M94.5556 41.1111H90.4444V45.2222H94.5556V41.1111Z" fill="black"/>
<path d="M98.6667 41.1111H94.5556V45.2222H98.6667V41.1111Z" fill="black"/>
<path d="M102.778 41.1111H98.6667V45.2222H102.778V41.1111Z" fill="black"/>
<path d="M12.3333 45.2222H8.22222V49.3333H12.3333V45.2222Z" fill="black"/>
<path d="M16.4444 45.2222H12.3333V49.3333H16.4444V45.2222Z" fill="black"/>
<path d="M20.5556 45.2222H16.4444V49.3333H20.5556V45.2222Z" fill="black"/>
<path d="M28.7778 45.2222H24.6667V49.3333H28.7778V45.2222Z" fill="black"/>
<path d="M32.8889 45.2222H28.7778V49.3333H32.8889V45.2222Z" fill="black"/>
<path d="M41.1111 45.2222H37V49.3333H41.1111V45.2222Z" fill="black"/>
<path d="M45.2222 45.2222H41.1111V49.3333H45.2222V45.2222Z" fill="black"/>
<path d="M53.4444 45.2222H49.3333V49.3333H53.4444V45.2222Z" fill="black"/>
<path d="M57.5555 45.2222H53.4444V49.3333H57.5555V45.2222Z" fill="black"/>
<path d="M65.7778 45.2222H61.6667V49.3333H65.7778V45.2222Z" fill="black"/>
<path d="M69.8889 45.2222H65.7778V49.3333H69.8889V45.2222Z" fill="black"/>
<path d="M82.2222 45.2222H78.1111V49.3333H82.2222V45.2222Z" fill="black"/>
<path d="M94.5556 45.2222H90.4444V49.3333H94.5556V45.2222Z" fill="black"/>
<path d="M106.889 45.2222H102.778V49.3333H106.889V45.2222Z" fill="black"/>
<path d="M12.3333 49.3333H8.22222V53.4444H12.3333V49.3333Z" fill="black"/>
<path d="M16.4444 49.3333H12.3333V53.4444H16.4444V49.3333Z" fill="black"/>
<path d="M20.5556 49.3333H16.4444V53.4444H20.5556V49.3333Z" fill="black"/>
<path d="M24.6667 49.3333H20.5556V53.4444H24.6667V49.3333Z" fill="black"/>
<path d="M65.7778 49.3333H61.6667V53.4444H65.7778V49.3333Z" fill="black"/>
<path d="M69.8889 49.3333H65.7778V53.4444H69.8889V49.3333Z" fill="black"/>
<path d="M82.2222 49.3333H78.1111V53.4444H82.2222V49.3333Z" fill="black"/>
<path d="M86.3333 49.3333H82.2222V53.4444H86.3333V49.3333Z" fill="black"/>
<path d="M90.4444 49.3333H86.3333V53.4444H90.4444V49.3333Z" fill="black"/>
<path d="M94.5556 49.3333H90.4444V53.4444H94.5556V49.3333Z" fill="black"/>
<path d="M98.6667 49.3333H94.5556V53.4444H98.6667V49.3333Z" fill="black"/>
<path d="M102.778 49.3333H98.6667V53.4444H102.778V49.3333Z" fill="black"/>
<path d="M106.889 49.3333H102.778V53.4444H106.889V49.3333Z" fill="black"/>
<path d="M8.22222 53.4445H4.11111V57.5556H8.22222V53.4445Z" fill="black"/>
<path d="M12.3333 53.4445H8.22222V57.5556H12.3333V53.4445Z" fill="black"/>
<path d="M20.5556 53.4445H16.4444V57.5556H20.5556V53.4445Z" fill="black"/>
<path d="M24.6667 53.4445H20.5556V57.5556H24.6667V53.4445Z" fill="black"/>
<path d="M32.8889 53.4445H28.7778V57.5556H32.8889V53.4445Z" fill="black"/>
<path d="M45.2222 53.4445H41.1111V57.5556H45.2222V53.4445Z" fill="black"/>
<path d="M49.3333 53.4445H45.2222V57.5556H49.3333V53.4445Z" fill="black"/>
<path d="M57.5555 53.4445H53.4444V57.5556H57.5555V53.4445Z" fill="black"/>
<path d="M74 53.4445H69.8889V57.5556H74V53.4445Z" fill="black"/>
<path d="M82.2222 53.4445H78.1111V57.5556H82.2222V53.4445Z" fill="black"/>
<path d="M86.3333 53.4445H82.2222V57.5556H86.3333V53.4445Z" fill="black"/>
<path d="M106.889 53.4445H102.778V57.5556H106.889V53.4445Z" fill="black"/>
<path d="M8.22222 57.5555H4.11111V61.6667H8.22222V57.5555Z" fill="black"/>
<path d="M20.5556 57.5555H16.4444V61.6667H20.5556V57.5555Z" fill="black"/>
<path d="M28.7778 57.5555H24.6667V61.6667H28.7778V57.5555Z" fill="black"/>
<path d="M37 57.5555H32.8889V61.6667H37V57.5555Z" fill="black"/>
<path d="M49.3333 57.5555H45.2222V61.6667H49.3333V57.5555Z" fill="black"/>
<path d="M53.4444 57.5555H49.3333V61.6667H53.4444V57.5555Z" fill="black"/>
<path d="M65.7778 57.5555H61.6667V61.6667H65.7778V57.5555Z" fill="black"/>
<path d="M69.8889 57.5555H65.7778V61.6667H69.8889V57.5555Z" fill="black"/>
<path d="M90.4444 57.5555H86.3333V61.6667H90.4444V57.5555Z" fill="black"/>
<path d="M102.778 57.5555H98.6667V61.6667H102.778V57.5555Z" fill="black"/>
<path d="M8.22222 61.6667H4.11111V65.7778H8.22222V61.6667Z" fill="black"/>
<path d="M12.3333 61.6667H8.22222V65.7778H12.3333V61.6667Z" fill="black"/>
<path d="M20.5556 61.6667H16.4444V65.7778H20.5556V61.6667Z" fill="black"/>
<path d="M28.7778 61.6667H24.6667V65.7778H28.7778V61.6667Z" fill="black"/>
<path d="M32.8889 61.6667H28.7778V65.7778H32.8889V61.6667Z" fill="black"/>
<path d="M45.2222 61.6667H41.1111V65.7778H45.2222V61.6667Z" fill="black"/>
<path d="M61.6667 61.6667H57.5556V65.7778H61.6667V61.6667Z" fill="black"/>
<path d="M65.7778 61.6667H61.6667V65.7778H65.7778V61.6667Z" fill="black"/>
<path d="M69.8889 61.6667H65.7778V65.7778H69.8889V61.6667Z" fill="black"/>
<path d="M78.1111 61.6667H74V65.7778H78.1111V61.6667Z" fill="black"/>
<path d="M90.4444 61.6667H86.3333V65.7778H90.4444V61.6667Z" fill="black"/>
<path d="M94.5556 61.6667H90.4444V65.7778H94.5556V61.6667Z" fill="black"/>
<path d="M98.6667 61.6667H94.5556V65.7778H98.6667V61.6667Z" fill="black"/>
<path d="M102.778 61.6667H98.6667V65.7778H102.778V61.6667Z" fill="black"/>
<path d="M106.889 61.6667H102.778V65.7778H106.889V61.6667Z" fill="black"/>
<path d="M8.22222 65.7778H4.11111V69.8889H8.22222V65.7778Z" fill="black"/>
<path d="M24.6667 65.7778H20.5556V69.8889H24.6667V65.7778Z" fill="black"/>
<path d="M28.7778 65.7778H24.6667V69.8889H28.7778V65.7778Z" fill="black"/>
<path d="M41.1111 65.7778H37V69.8889H41.1111V65.7778Z" fill="black"/>
<path d="M45.2222 65.7778H41.1111V69.8889H45.2222V65.7778Z" fill="black"/>
<path d="M57.5555 65.7778H53.4444V69.8889H57.5555V65.7778Z" fill="black"/>
<path d="M65.7778 65.7778H61.6667V69.8889H65.7778V65.7778Z" fill="black"/>
<path d="M69.8889 65.7778H65.7778V69.8889H69.8889V65.7778Z" fill="black"/>
<path d="M74 65.7778H69.8889V69.8889H74V65.7778Z" fill="black"/>
<path d="M82.2222 65.7778H78.1111V69.8889H82.2222V65.7778Z" fill="black"/>
<path d="M86.3333 65.7778H82.2222V69.8889H86.3333V65.7778Z" fill="black"/>
<path d="M98.6667 65.7778H94.5556V69.8889H98.6667V65.7778Z" fill="black"/>
<path d="M106.889 65.7778H102.778V69.8889H106.889V65.7778Z" fill="black"/>
<path d="M8.22222 69.8889H4.11111V74H8.22222V69.8889Z" fill="black"/>
<path d="M20.5556 69.8889H16.4444V74H20.5556V69.8889Z" fill="black"/>
<path d="M32.8889 69.8889H28.7778V74H32.8889V69.8889Z" fill="black"/>
<path d="M37 69.8889H32.8889V74H37V69.8889Z" fill="black"/>
<path d="M41.1111 69.8889H37V74H41.1111V69.8889Z" fill="black"/>
<path d="M45.2222 69.8889H41.1111V74H45.2222V69.8889Z" fill="black"/>
<path d="M49.3333 69.8889H45.2222V74H49.3333V69.8889Z" fill="black"/>
<path d="M57.5555 69.8889H53.4444V74H57.5555V69.8889Z" fill="black"/>
<path d="M61.6667 69.8889H57.5556V74H61.6667V69.8889Z" fill="black"/>
<path d="M74 69.8889H69.8889V74H74V69.8889Z" fill="black"/>
<path d="M78.1111 69.8889H74V74H78.1111V69.8889Z" fill="black"/>
<path d="M82.2222 69.8889H78.1111V74H82.2222V69.8889Z" fill="black"/>
<path d="M86.3333 69.8889H82.2222V74H86.3333V69.8889Z" fill="black"/>
<path d="M90.4444 69.8889H86.3333V74H90.4444V69.8889Z" fill="black"/>
<path d="M98.6667 69.8889H94.5556V74H98.6667V69.8889Z" fill="black"/>
<path d="M102.778 69.8889H98.6667V74H102.778V69.8889Z" fill="black"/>
<path d="M41.1111 74H37V78.1111H41.1111V74Z" fill="black"/>
<path d="M45.2222 74H41.1111V78.1111H45.2222V74Z" fill="black"/>
<path d="M61.6667 74H57.5556V78.1111H61.6667V74Z" fill="black"/>
<path d="M74 74H69.8889V78.1111H74V74Z" fill="black"/>
<path d="M90.4444 74H86.3333V78.1111H90.4444V74Z" fill="black"/>
<path d="M102.778 74H98.6667V78.1111H102.778V74Z" fill="black"/>
<path d="M8.22222 78.1111H4.11111V82.2222H8.22222V78.1111Z" fill="black"/>
<path d="M12.3333 78.1111H8.22222V82.2222H12.3333V78.1111Z" fill="black"/>
<path d="M16.4444 78.1111H12.3333V82.2222H16.4444V78.1111Z" fill="black"/>
<path d="M20.5556 78.1111H16.4444V82.2222H20.5556V78.1111Z" fill="black"/>
<path d="M24.6667 78.1111H20.5556V82.2222H24.6667V78.1111Z" fill="black"/>
<path d="M28.7778 78.1111H24.6667V82.2222H28.7778V78.1111Z" fill="black"/>
<path d="M32.8889 78.1111H28.7778V82.2222H32.8889V78.1111Z" fill="black"/>
<path d="M45.2222 78.1111H41.1111V82.2222H45.2222V78.1111Z" fill="black"/>
<path d="M53.4444 78.1111H49.3333V82.2222H53.4444V78.1111Z" fill="black"/>
<path d="M57.5555 78.1111H53.4444V82.2222H57.5555V78.1111Z" fill="black"/>
<path d="M61.6667 78.1111H57.5556V82.2222H61.6667V78.1111Z" fill="black"/>
<path d="M74 78.1111H69.8889V82.2222H74V78.1111Z" fill="black"/>
<path d="M82.2222 78.1111H78.1111V82.2222H82.2222V78.1111Z" fill="black"/>
<path d="M90.4444 78.1111H86.3333V82.2222H90.4444V78.1111Z" fill="black"/>
<path d="M94.5556 78.1111H90.4444V82.2222H94.5556V78.1111Z" fill="black"/>
<path d="M106.889 78.1111H102.778V82.2222H106.889V78.1111Z" fill="black"/>
<path d="M8.22222 82.2222H4.11111V86.3333H8.22222V82.2222Z" fill="black"/>
<path d="M32.8889 82.2222H28.7778V86.3333H32.8889V82.2222Z" fill="black"/>
<path d="M61.6667 82.2222H57.5556V86.3333H61.6667V82.2222Z" fill="black"/>
<path d="M65.7778 82.2222H61.6667V86.3333H65.7778V82.2222Z" fill="black"/>
<path d="M69.8889 82.2222H65.7778V86.3333H69.8889V82.2222Z" fill="black"/>
<path d="M74 82.2222H69.8889V86.3333H74V82.2222Z" fill="black"/>
<path d="M90.4444 82.2222H86.3333V86.3333H90.4444V82.2222Z" fill="black"/>
<path d="M106.889 82.2222H102.778V86.3333H106.889V82.2222Z" fill="black"/>
<path d="M8.22222 86.3333H4.11111V90.4444H8.22222V86.3333Z" fill="black"/>
<path d="M16.4444 86.3333H12.3333V90.4444H16.4444V86.3333Z" fill="black"/>
<path d="M20.5556 86.3333H16.4444V90.4444H20.5556V86.3333Z" fill="black"/>
<path d="M24.6667 86.3333H20.5556V90.4444H24.6667V86.3333Z" fill="black"/>
<path d="M32.8889 86.3333H28.7778V90.4444H32.8889V86.3333Z" fill="black"/>
<path d="M41.1111 86.3333H37V90.4444H41.1111V86.3333Z" fill="black"/>
<path d="M45.2222 86.3333H41.1111V90.4444H45.2222V86.3333Z" fill="black"/>
<path d="M49.3333 86.3333H45.2222V90.4444H49.3333V86.3333Z" fill="black"/>
<path d="M65.7778 86.3333H61.6667V90.4444H65.7778V86.3333Z" fill="black"/>
<path d="M69.8889 86.3333H65.7778V90.4444H69.8889V86.3333Z" fill="black"/>
<path d="M74 86.3333H69.8889V90.4444H74V86.3333Z" fill="black"/>
<path d="M78.1111 86.3333H74V90.4444H78.1111V86.3333Z" fill="black"/>
<path d="M82.2222 86.3333H78.1111V90.4444H82.2222V86.3333Z" fill="black"/>
<path d="M86.3333 86.3333H82.2222V90.4444H86.3333V86.3333Z" fill="black"/>
<path d="M90.4444 86.3333H86.3333V90.4444H90.4444V86.3333Z" fill="black"/>
<path d="M94.5556 86.3333H90.4444V90.4444H94.5556V86.3333Z" fill="black"/>
<path d="M102.778 86.3333H98.6667V90.4444H102.778V86.3333Z" fill="black"/>
<path d="M8.22222 90.4445H4.11111V94.5556H8.22222V90.4445Z" fill="black"/>
<path d="M16.4444 90.4445H12.3333V94.5556H16.4444V90.4445Z" fill="black"/>
<path d="M20.5556 90.4445H16.4444V94.5556H20.5556V90.4445Z" fill="black"/>
<path d="M24.6667 90.4445H20.5556V94.5556H24.6667V90.4445Z" fill="black"/>
<path d="M32.8889 90.4445H28.7778V94.5556H32.8889V90.4445Z" fill="black"/>
<path d="M41.1111 90.4445H37V94.5556H41.1111V90.4445Z" fill="black"/>
<path d="M45.2222 90.4445H41.1111V94.5556H45.2222V90.4445Z" fill="black"/>
<path d="M49.3333 90.4445H45.2222V94.5556H49.3333V90.4445Z" fill="black"/>
<path d="M53.4444 90.4445H49.3333V94.5556H53.4444V90.4445Z" fill="black"/>
<path d="M65.7778 90.4445H61.6667V94.5556H65.7778V90.4445Z" fill="black"/>
<path d="M78.1111 90.4445H74V94.5556H78.1111V90.4445Z" fill="black"/>
<path d="M82.2222 90.4445H78.1111V94.5556H82.2222V90.4445Z" fill="black"/>
<path d="M94.5556 90.4445H90.4444V94.5556H94.5556V90.4445Z" fill="black"/>
<path d="M102.778 90.4445H98.6667V94.5556H102.778V90.4445Z" fill="black"/>
<path d="M106.889 90.4445H102.778V94.5556H106.889V90.4445Z" fill="black"/>
<path d="M8.22222 94.5555H4.11111V98.6666H8.22222V94.5555Z" fill="black"/>
<path d="M16.4444 94.5555H12.3333V98.6666H16.4444V94.5555Z" fill="black"/>
<path d="M20.5556 94.5555H16.4444V98.6666H20.5556V94.5555Z" fill="black"/>
<path d="M24.6667 94.5555H20.5556V98.6666H24.6667V94.5555Z" fill="black"/>
<path d="M32.8889 94.5555H28.7778V98.6666H32.8889V94.5555Z" fill="black"/>
<path d="M45.2222 94.5555H41.1111V98.6666H45.2222V94.5555Z" fill="black"/>
<path d="M49.3333 94.5555H45.2222V98.6666H49.3333V94.5555Z" fill="black"/>
<path d="M53.4444 94.5555H49.3333V98.6666H53.4444V94.5555Z" fill="black"/>
<path d="M74 94.5555H69.8889V98.6666H74V94.5555Z" fill="black"/>
<path d="M78.1111 94.5555H74V98.6666H78.1111V94.5555Z" fill="black"/>
<path d="M86.3333 94.5555H82.2222V98.6666H86.3333V94.5555Z" fill="black"/>
<path d="M90.4444 94.5555H86.3333V98.6666H90.4444V94.5555Z" fill="black"/>
<path d="M98.6667 94.5555H94.5556V98.6666H98.6667V94.5555Z" fill="black"/>
<path d="M102.778 94.5555H98.6667V98.6666H102.778V94.5555Z" fill="black"/>
<path d="M106.889 94.5555H102.778V98.6666H106.889V94.5555Z" fill="black"/>
<path d="M8.22222 98.6667H4.11111V102.778H8.22222V98.6667Z" fill="black"/>
<path d="M32.8889 98.6667H28.7778V102.778H32.8889V98.6667Z" fill="black"/>
<path d="M41.1111 98.6667H37V102.778H41.1111V98.6667Z" fill="black"/>
<path d="M45.2222 98.6667H41.1111V102.778H45.2222V98.6667Z" fill="black"/>
<path d="M53.4444 98.6667H49.3333V102.778H53.4444V98.6667Z" fill="black"/>
<path d="M57.5555 98.6667H53.4444V102.778H57.5555V98.6667Z" fill="black"/>
<path d="M78.1111 98.6667H74V102.778H78.1111V98.6667Z" fill="black"/>
<path d="M86.3333 98.6667H82.2222V102.778H86.3333V98.6667Z" fill="black"/>
<path d="M90.4444 98.6667H86.3333V102.778H90.4444V98.6667Z" fill="black"/>
<path d="M98.6667 98.6667H94.5556V102.778H98.6667V98.6667Z" fill="black"/>
<path d="M102.778 98.6667H98.6667V102.778H102.778V98.6667Z" fill="black"/>
<path d="M106.889 98.6667H102.778V102.778H106.889V98.6667Z" fill="black"/>
<path d="M8.22222 102.778H4.11111V106.889H8.22222V102.778Z" fill="black"/>
<path d="M12.3333 102.778H8.22222V106.889H12.3333V102.778Z" fill="black"/>
<path d="M16.4444 102.778H12.3333V106.889H16.4444V102.778Z" fill="black"/>
<path d="M20.5556 102.778H16.4444V106.889H20.5556V102.778Z" fill="black"/>
<path d="M24.6667 102.778H20.5556V106.889H24.6667V102.778Z" fill="black"/>
<path d="M28.7778 102.778H24.6667V106.889H28.7778V102.778Z" fill="black"/>
<path d="M32.8889 102.778H28.7778V106.889H32.8889V102.778Z" fill="black"/>
<path d="M41.1111 102.778H37V106.889H41.1111V102.778Z" fill="black"/>
<path d="M49.3333 102.778H45.2222V106.889H49.3333V102.778Z" fill="black"/>
<path d="M57.5555 102.778H53.4444V106.889H57.5555V102.778Z" fill="black"/>
<path d="M74 102.778H69.8889V106.889H74V102.778Z" fill="black"/>
<path d="M82.2222 102.778H78.1111V106.889H82.2222V102.778Z" fill="black"/>
<path d="M94.5556 102.778H90.4444V106.889H94.5556V102.778Z" fill="black"/>
<path d="M106.889 102.778H102.778V106.889H106.889V102.778Z" fill="black"/>
</svg>
